# xmcd
#
# Track frame offsets: 
#        150
#        13174
#        29901
#        42493
#        56530
#        69739
#        85663
#        93365
#        108099
#        120613
#
# Disc length: 1784 seconds
#
# Revision: 1
# Processed by: cddbd v1.5.2PL0 Copyright (c) Steve Scherf et al.
# Submitted via: ExactAudioCopyFreeDBPlugin 1.0
#
DISCID=8306f60a
DTITLE=Various Artist - #1 Country Hits of The 70s
DYEAR=2011
DGENRE=Country
TTITLE0=Freddy Fender - Wasted Days And Wasted Nights (live)
TTITLE1=T.G. Sheppard - Last Cheaters Waltz
TTITLE2=Faron Young - It's Four In The Morning
TTITLE3=Barbara Fairchild - The Teddy Bear Song
TTITLE4=Lynn Anderson - How Can I Unlove You
TTITLE5=Exile - Kiss You All Over
TTITLE6=Mickey Gilley - Window Up Above
TTITLE7=Tanya Tucker - You've Got Me To Hold On You
TTITLE8=T.G. Sheppard - Trying To Beat The Morning Home
TTITLE9=Dave Dudley - The Pool Shark
EXTD=
EXTT0=
EXTT1=
EXTT2=
EXTT3=
EXTT4=
EXTT5=
EXTT6=
EXTT7=
EXTT8=
EXTT9=
PLAYORDER=
